# xmcd
#
# Track frame offsets: 
#        150
#        18750
#        37308
#        63540
#        85590
#        98855
#        116931
#        134619
#        152327
#        177940
#        194547
#        210034
#        229575
#        259951
#        281460
#        300886
#
# Disc length: 4390 seconds
#
# Revision: 1
# Processed by: cddbd v1.5.2PL0 Copyright (c) Steve Scherf et al.
# Submitted via: ExactAudioCopy v1.0b3
#
DISCID=d2112410
DTITLE=Various Artist - Blues Rock_vol.6
DYEAR=2001
DGENRE=Blues
TTITLE0=Gov't Mule - Rocking Horse
TTITLE1=The Alex Parche Band - Cool Running Man
TTITLE2=Warren Haynes - Power And The Gliry
TTITLE3=The Allman Brothers Band - Shine It On
TTITLE4=Big George And The Business - Long Black Train
TTITLE5=The Hoax - Headless Chicken
TTITLE6=Cub Coda - Pusherman Of Love
TTITLE7=Buddah Heads - Brother Cain
TTITLE8=Gov't Mule - Gov't Mule_Mule
TTITLE9=Warren Haynes - Kiss Tomorrow Good-Bye
TTITLE10=Big George And The Business - Thunderbolt
TTITLE11=The Alex Parche Band - Run For Cover
TTITLE12=The Allman Brothers Band - Gambler's Roll
TTITLE13=Buddah Heads - Dodge The Rain
TTITLE14=Sean Chambars - Mojo Down The Road
TTITLE15=Cub Coda - Fire and Brimstone
EXTD=
EXTT0=
EXTT1=
EXTT2=
EXTT3=
EXTT4=
EXTT5=
EXTT6=
EXTT7=
EXTT8=
EXTT9=
EXTT10=
EXTT11=
EXTT12=
EXTT13=
EXTT14=
EXTT15=
PLAYORDER=
